<?xml version="1.0" encoding="UTF-8"?>
<svg id="Camada_1" data-name="Camada 1" xmlns="http://www.w3.org/2000/svg" xmlns:xlink="http://www.w3.org/1999/xlink" viewBox="0 0 164 48">
  <defs>
    <style>
      .cls-1, .cls-2 {
        fill: #00d931;
      }

      .cls-3 {
        fill: #00abeb;
      }

      .cls-4 {
        stroke: #fff;
        stroke-miterlimit: 10;
        stroke-width: .17px;
      }

      .cls-4, .cls-5 {
        fill: none;
      }

      .cls-6, .cls-7 {
        fill: #fff;
      }

      .cls-7, .cls-2 {
        fill-rule: evenodd;
      }

      .cls-8 {
        clip-path: url(#clippath);
      }
    </style>
    <clipPath id="clippath">
      <path class="cls-5" d="M23.78,21c0,2.91,2.38,5.27,5.31,5.27s5.32-2.36,5.32-5.27-2.38-5.27-5.32-5.27-5.31,2.36-5.31,5.27"/>
    </clipPath>
  </defs>
  <path class="cls-2" d="M138.57,41.16h-69.81c-3.24,0-5.86-2.62-5.86-5.86v-1.97c0-3.24,2.62-5.86,5.86-5.86h69.81c3.24,0,5.86,2.62,5.86,5.86v1.97c0,3.24-2.62,5.86-5.86,5.86h0Z"/>
  <path class="cls-1" d="M15.98,40.31c0-.32,0-.77,0-.77,0,0-.04-.39.51-.39h20.9c.58,0,1.05-.41,1.05-.9V10.47c0-.5-.47-.9-1.05-.9h-16.66c-.58,0-1.05.41-1.05.9v.75c0,.41-.34.4-.34.4h-1.06s-.28-.05-.28-.38v-.77c0-1.39,1.23-2.52,2.74-2.52h16.66c1.51,0,2.74,1.13,2.74,2.52v27.78c0,1.39-1.23,2.52-2.74,2.52h-21.01s-.4,0-.4-.45"/>
  <path class="cls-6" d="M13.09,34.26v2.55h-1.25v-2.32c0-.4-.26-.69-.63-.69-.39,0-.67.27-.67.63v2.37h-1.25v-2.32c0-.4-.26-.69-.63-.69-.39,0-.67.27-.67.63v2.37h-1.31v-4h1.31v.52c.19-.38.58-.61,1.07-.61.53,0,1,.26,1.26.69.22-.42.7-.69,1.29-.69.84,0,1.5.64,1.5,1.55"/>
  <path class="cls-6" d="M13.94,31.62c0-.36.31-.68.7-.68s.68.32.68.68-.3.7-.68.7-.7-.32-.7-.7M13.97,32.8h1.31v4h-1.31v-4Z"/>
  <path class="cls-6" d="M20.13,34.26v2.54h-1.25v-2.25c0-.44-.28-.75-.68-.75s-.7.3-.7.7v-.02s0,2.33,0,2.33h-1.31v-4h1.31v.46c.25-.34.67-.55,1.18-.55.86,0,1.47.64,1.47,1.55"/>
  <path class="cls-6" d="M24.93,32.8v4h-1.31v-.46c-.25.34-.67.55-1.18.55-.86,0-1.47-.64-1.47-1.55v-2.54h1.25v2.25c0,.44.28.75.68.75s.7-.3.7-.7v.02s0-2.33,0-2.33h1.31Z"/>
  <path class="cls-6" d="M28.32,36.52c-.24.22-.63.38-.97.38-.75,0-1.28-.53-1.28-1.28v-1.76h-.53v-1.04h.53v-1.1h1.25v1.1h.83v1.04h-.83v1.52c0,.26.15.43.36.43.15,0,.29-.05.37-.13l.26.84Z"/>
  <path class="cls-6" d="M28.76,34.8c0-1.14,1.01-2.09,2.22-2.09s2.22.95,2.22,2.09-1.01,2.1-2.22,2.1-2.22-.96-2.22-2.1M31.97,34.8c0-.54-.45-1-.98-1s-.98.46-.98,1,.45,1.01.98,1.01.98-.46.98-1.01"/>
  <path class="cls-6" d="M33.58,36.29l.53-.84c.37.26.88.46,1.36.46.29,0,.45-.09.45-.25,0-.19-.26-.27-.66-.36-.77-.18-1.49-.38-1.5-1.25,0-.77.63-1.34,1.62-1.34.6,0,1.18.21,1.62.51l-.48.86c-.35-.22-.78-.39-1.14-.39-.24,0-.41.11-.41.23,0,.18.17.22.64.34.71.17,1.51.4,1.51,1.31,0,.8-.65,1.32-1.68,1.32-.67,0-1.37-.22-1.86-.6"/>
  <path class="cls-6" d="M14.23,17.86c-2.53-.02-3.93.8-5.13,2.34.98-4.76,5.79-5.37,8.22-3.64l1.68-2.71c-1.89-1.46-4.76-1.34-4.76-1.34-4.64.08-8.32,3.81-8.32,8.46s3.32,8.09,7.65,8.49c.1.01.2.02.3.02.16,0,.5,0,.5,0,3.17-.1,5.69-2.92,5.69-5.94s-2.42-5.67-5.82-5.69M8.6,21.63s0-.08-.01-.13c.02,0,.05-.02.07-.03-.02.05-.04.1-.06.15M13.73,26.17c-1.86,0-3.37-1.24-3.37-2.77s1.51-2.77,3.37-2.77,3.37,1.24,3.37,2.77-1.51,2.77-3.37,2.77"/>
  <path class="cls-6" d="M29.14,29.55c-4.69,0-8.5-3.81-8.5-8.5s3.81-8.5,8.5-8.5,8.5,3.81,8.5,8.5-3.81,8.5-8.5,8.5M29.14,15.75c-2.92,0-5.3,2.38-5.3,5.3s2.38,5.3,5.3,5.3,5.3-2.38,5.3-5.3-2.38-5.3-5.3-5.3"/>
  <g class="cls-8">
    <path class="cls-3" d="M23.76,21.6c.34-.13.66-.33.97-.51.58-.35,1.18-.71,1.95-.71s1.36.36,1.95.71c.58.35,1.18.7,1.93.7s1.35-.36,1.93-.7c.58-.35,1.18-.71,1.95-.71h-.02s.15.83,0,1.71c-.3,1.7-1.68,4.37-5.39,4.39-3.06.01-5.23-2.1-5.23-4.88"/>
    <path class="cls-4" d="M23.76,21.6c.34-.13.66-.33.97-.51.58-.35,1.18-.71,1.95-.71s1.36.36,1.95.71c.58.35,1.18.7,1.93.7s1.35-.36,1.93-.7c.58-.35,1.18-.71,1.95-.71h-.02s.15.83,0,1.71c-.3,1.7-1.68,4.37-5.39,4.39-3.06.01-5.23-2.1-5.23-4.88"/>
  </g>
  <path class="cls-4" d="M34.41,21c0,2.91-2.38,5.27-5.31,5.27s-5.31-2.36-5.31-5.27,2.38-5.27,5.31-5.27,5.31,2.36,5.31,5.27Z"/>
  <path class="cls-1" d="M32.73,15.74c.04-.09.07-.2.06-.3-.02-.38-.36-.67-.77-.65-.27.01-.5.16-.62.37h0s-1.91,3.75-1.91,3.75c0,0,.01-5.73.01-5.74-.02-.37-.36-.65-.76-.63-.39.02-.69.31-.69.65h0s-.06,8.21-.05,8.28c.02.44.42.78.9.76.39-.02.71-.28.79-.62l3.05-5.88h0Z"/>
  <path class="cls-6" d="M28.76,22.4c-.5,0-.97-.42-.91-1.13l.05-8.21c.08-.36.42-.64.83-.65.24,0,.47.06.64.21.15.12.24.28.28.45v5.18s1.69-3.27,1.69-3.27c.13-.23.41-.32.67-.33.49-.02.92.33.94.79,0,.08,0,.15-.02.23l-3.09,6.01c-.46.83-1.06.72-1.08.72M28.16,21.54c.02.36.33.55.61.55.31,0,.5-.09.79-.55l3.03-5.86c.04-.08.05-.16.05-.24,0-.14-.07-.27-.19-.37-.11-.1-.26-.14-.41-.14-.2,0-.39.12-.48.29l-2.23,4.37s.02-6.41.02-6.42c0-.13-.07-.26-.18-.35-.11-.09-.26-.14-.41-.13-.3.01-.53.23-.54.51,0,0-.06,8.29-.06,8.34"/>
  <path class="cls-6" d="M36.31,12.65l.58.83h-.39l-.56-.8h-.53v.8h-.34v-2.29h.96c.48,0,.85.31.85.75,0,.35-.24.62-.59.71M35.42,12.37h.58c.33,0,.55-.16.55-.43s-.22-.43-.55-.43h-.58v.87Z"/>
  <path class="cls-6" d="M35.87,14.44c-1.15,0-2.09-.94-2.09-2.09s.94-2.09,2.09-2.09,2.09.94,2.09,2.09-.94,2.09-2.09,2.09M35.87,10.52c-1.01,0-1.83.82-1.83,1.83s.82,1.83,1.83,1.83,1.83-.82,1.83-1.83-.82-1.83-1.83-1.83"/>
  <path class="cls-7" d="M108.61,35.62c0-1.02-.29-1.89-.86-2.54-.57-.61-1.43-.94-2.46-.94-.94,0-1.8.33-2.46.9-.61.53-1.02,1.35-1.02,2.25s.45,1.76,1.11,2.34c.66.57,1.52.9,2.46.9.49,0,1.02-.08,1.52-.25.49-.16.94-.41,1.27-.7l.25-.25-1.07-.98-.21.25c-.12.12-.41.29-.74.37-.33.12-.7.16-1.02.16-.57,0-1.02-.16-1.35-.45-.25-.16-.41-.45-.53-.74h5.12v-.33ZM105.21,34.6h-1.76c.12-.29.29-.49.53-.7.33-.25.74-.41,1.23-.41s.94.16,1.27.41c.2.21.41.41.49.7h-1.76Z"/>
  <path class="cls-7" d="M82.9,35.62c0-1.02-.29-1.89-.86-2.54-.57-.61-1.43-.94-2.46-.94-.94,0-1.8.33-2.46.9-.61.53-1.02,1.35-1.02,2.25s.45,1.76,1.11,2.34c.66.57,1.52.9,2.46.9.49,0,.98-.08,1.48-.25.49-.16.98-.41,1.31-.7l.25-.25-1.07-.98-.2.25c-.16.12-.41.29-.74.37-.33.12-.7.16-1.02.16-.57,0-1.02-.16-1.35-.45-.25-.16-.41-.45-.53-.74h5.12v-.33ZM79.5,34.6h-1.76c.12-.29.29-.49.53-.7.33-.25.74-.41,1.23-.41s.94.16,1.27.41c.2.21.41.41.49.7h-1.76Z"/>
  <path class="cls-7" d="M113.73,32.26h1.72l1.89,4.1,1.89-4.1h1.76l-2.99,6.15h-1.31l-2.79-5.7-.16-.33v1.11h-.33c-.66,0-1.23.16-1.6.45-.37.29-.53.61-.53,1.07v3.4h-1.6v-6.15h1.6v.49c.12-.08.29-.16.45-.25.49-.25,1.02-.37,1.68-.37h.33v.12Z"/>
  <polygon class="cls-7" points="121.48 32.26 123.08 32.26 123.08 38.41 121.48 38.41 121.48 32.59 121.48 32.26"/>
  <path class="cls-7" d="M122.3,30.21c.25,0,.45.08.66.25.16.12.29.37.29.61s-.12.45-.29.61c-.2.12-.41.25-.66.25s-.49-.12-.66-.25c-.16-.16-.29-.37-.29-.61s.12-.49.29-.61c.16-.16.41-.25.66-.25h0Z"/>
  <path class="cls-7" d="M125.17,33.04c.66-.57,1.56-.9,2.5-.9s1.84.33,2.5.86l.29.25-1.15.98-.25-.2c-.33-.33-.82-.53-1.39-.53-.53,0-1.02.2-1.39.57-.37.33-.57.78-.57,1.27s.2.94.57,1.27c.37.33.86.53,1.39.53.57,0,1.07-.2,1.43-.57l.25-.2,1.15.98-.29.25c-.66.57-1.56.94-2.54.94s-1.84-.37-2.5-.94c-.7-.57-1.11-1.39-1.11-2.25s.41-1.72,1.11-2.3h0Z"/>
  <path class="cls-7" d="M137.67,35.62c0-1.02-.33-1.89-.9-2.54-.57-.61-1.43-.94-2.46-.94-.94,0-1.8.33-2.42.9-.66.53-1.07,1.35-1.02,2.25-.04.94.41,1.76,1.07,2.34.66.57,1.56.9,2.46.9.49,0,1.02-.08,1.52-.25.49-.16.94-.41,1.27-.7l.25-.25-1.02-.98-.25.25c-.12.12-.41.29-.74.37-.33.12-.7.16-1.02.16-.57,0-1.02-.16-1.35-.45-.25-.16-.41-.45-.49-.74h5.12v-.33ZM134.27,34.6h-1.76c.08-.29.25-.49.49-.7.33-.25.78-.41,1.27-.41s.9.16,1.23.41c.25.21.41.41.53.7h-1.76Z"/>
  <path class="cls-7" d="M98.4,32.14c1.11,0,1.89.33,2.79.82l-.86,1.15c-.7-.37-1.23-.61-1.93-.61-.33,0-.98.12-.94.49,0,.29.78.45,1.39.61.98.29,2.3.66,2.3,1.93.04,2.09-3.24,2.66-5.45,1.11l-.29-.2.9-1.07c.78.49,1.39.78,2.21.78.37,0,1.07-.08,1.07-.53,0-.86-3.73-.45-3.73-2.54,0-1.31,1.31-1.93,2.54-1.93h0Z"/>
  <polygon class="cls-7" points="90.98 34.48 94.83 34.48 94.83 35.91 90.98 35.91 90.98 34.8 90.98 34.48"/>
  <path class="cls-7" d="M90.86,30.71l-.9,1.15-.25-.25s-.25-.12-.45-.12c-.08,0-.16.04-.25.08-.08.08-.12.16-.12.29v.41h1.56v1.35h-1.56v4.8h-1.56v-4.8h-1.02v-1.35h1.02v-.41c0-.53.2-.94.53-1.27.33-.33.82-.49,1.35-.49.49,0,.94.16,1.35.41l.29.2Z"/>
  <polygon class="cls-7" points="83.89 30.34 85.49 30.34 85.49 38.41 83.89 38.41 83.89 30.66 83.89 30.34"/>
  <path class="cls-7" d="M72.7,32.14c.86,0,1.72.25,2.46.66l.33.16-.86,1.15-.25-.12c-.57-.33-1.19-.49-1.68-.49-.2,0-.45.04-.61.08-.16.08-.25.16-.29.25-.04.04-.04.08-.04.16v.08s.08.08.16.16c.25.08.61.2,1.23.37.37.12.78.2,1.15.37.37.16.7.41.94.74.12.25.2.53.2.82.04.61-.29,1.15-.78,1.48-.49.37-1.15.53-1.84.53-.98,0-2.01-.33-2.83-.9l-.29-.2.86-1.07.25.16c.7.41,1.35.61,2.01.61.29,0,.49-.04.7-.08.16-.08.25-.16.33-.25,0-.08.04-.12.04-.2s-.04-.08-.08-.16c-.04-.04-.08-.12-.2-.16-.25-.12-.66-.25-1.07-.33-.57-.16-1.07-.29-1.43-.49-.37-.16-.61-.41-.78-.74-.12-.2-.16-.41-.16-.66,0-.61.29-1.11.78-1.43.45-.33,1.11-.49,1.76-.49h0Z"/>
  <rect class="cls-6" x="49.25" y="8.2" width="3.2" height="15.13"/>
  <path class="cls-6" d="M62.08,19.8v-1.02c-.74-.25-1.56-.41-2.42-.41-1.15,0-2.05.66-2.05,1.6s.78,1.43,1.89,1.43c1.23,0,2.38-.53,2.58-1.6h0ZM65.15,16.64v6.72h-3.07v-1.15c-.82.9-2.09,1.39-3.32,1.39-2.38,0-4.22-1.43-4.22-3.57s2.05-3.73,4.67-3.73c.9,0,1.93.16,2.87.53v-.2c0-1.19-.74-2.21-2.58-2.21-1.07,0-2.01.33-2.91.78l-1.07-2.09c1.6-.82,3.12-1.23,4.67-1.23,2.95,0,4.96,1.84,4.96,4.76h0Z"/>
  <polygon class="cls-6" points="66.71 12.13 70.03 12.13 73.02 19.72 75.98 12.13 79.3 12.13 74.5 23.33 71.55 23.33 66.71 12.13"/>
  <path class="cls-6" d="M87.13,19.8v-1.02c-.74-.25-1.56-.41-2.42-.41-1.15,0-2.05.66-2.05,1.6s.78,1.43,1.89,1.43c1.19,0,2.34-.53,2.58-1.6h0ZM90.16,16.64v6.72h-3.03v-1.15c-.82.9-2.09,1.39-3.32,1.39-2.38,0-4.22-1.43-4.22-3.57s2.05-3.73,4.67-3.73c.9,0,1.89.16,2.87.53v-.2c0-1.19-.74-2.21-2.58-2.21-1.07,0-2.05.33-2.91.78l-1.07-2.09c1.56-.82,3.12-1.23,4.67-1.23,2.95,0,4.92,1.84,4.92,4.76h0Z"/>
  <path class="cls-6" d="M103.52,16.23v7.13h-3.07v-6.48c0-1.39-.86-2.34-2.13-2.34s-2.34.94-2.34,2.17l-.04-.08v6.72h-3.16v-11.23h3.16v1.43c.7-1.02,1.93-1.68,3.4-1.68,2.42,0,4.18,1.8,4.18,4.35h0Z"/>
  <path class="cls-6" d="M114.55,17.75c0-1.89-1.19-3.2-2.87-3.2s-2.99,1.31-2.99,3.2,1.27,3.2,2.99,3.2,2.87-1.31,2.87-3.2h0ZM117.75,8.2v15.13h-3.2v-1.6c-.86,1.19-2.17,1.89-3.77,1.89-2.99,0-5.17-2.42-5.17-5.86s2.17-5.86,5.17-5.86c1.6,0,2.91.7,3.77,1.84v-5.53h3.2Z"/>
  <path class="cls-6" d="M123.2,16.48h5c-.29-1.11-1.15-1.8-2.42-1.8-1.19,0-2.17.7-2.58,1.8h0ZM128.41,19.8l2.01,2.09c-.98,1.02-2.91,1.72-4.59,1.72-3.32,0-5.94-2.46-5.94-5.9s2.5-5.82,5.78-5.82c3.53,0,5.58,2.66,5.58,6.89h-8.08c.37,1.23,1.31,2.05,2.66,2.05.86,0,1.97-.41,2.58-1.02h0Z"/>
  <path class="cls-6" d="M140.42,11.89v2.66c-2.34,0-3.85,1.35-3.85,3.44v5.37h-3.16v-11.23h3.16v2.09c.74-1.43,2.13-2.34,3.85-2.34h0Z"/>
  <path class="cls-6" d="M142.22,12.13h3.16v11.23h-3.16v-11.23ZM142.1,8.86c0-.86.74-1.68,1.72-1.68s1.68.82,1.68,1.68c0,.98-.74,1.76-1.68,1.76s-1.72-.78-1.72-1.76h0Z"/>
  <path class="cls-6" d="M155.01,19.8v-1.02c-.7-.25-1.52-.41-2.42-.41-1.15,0-2.05.66-2.05,1.6s.82,1.43,1.89,1.43c1.23,0,2.38-.53,2.58-1.6h0ZM158.09,16.64v6.72h-3.07v-1.15c-.78.9-2.09,1.39-3.28,1.39-2.42,0-4.26-1.43-4.26-3.57s2.09-3.73,4.67-3.73c.94,0,1.93.16,2.87.53v-.2c0-1.19-.74-2.21-2.58-2.21-1.02,0-2.01.33-2.91.78l-1.07-2.09c1.6-.82,3.16-1.23,4.71-1.23,2.91,0,4.92,1.84,4.92,4.76h0Z"/>
</svg>