<svg width="90" height="14" viewBox="0 0 90 14" fill="none" xmlns="http://www.w3.org/2000/svg">
<path fill-rule="evenodd" clip-rule="evenodd" d="M80.599 11.375C80.599 11.1334 80.8152 10.9375 81.0819 10.9375H87.52C87.7867 10.9375 88.0029 11.1334 88.0029 11.375C88.0029 11.6166 87.7867 11.8125 87.52 11.8125H81.0819C80.8152 11.8125 80.599 11.6166 80.599 11.375Z" fill="#0038FF"/>
<path fill-rule="evenodd" clip-rule="evenodd" d="M80.599 7.29167C80.599 7.05004 80.8152 6.85417 81.0819 6.85417H87.52C87.7867 6.85417 88.0029 7.05004 88.0029 7.29167C88.0029 7.53329 87.7867 7.72917 87.52 7.72917H81.0819C80.8152 7.72917 80.599 7.53329 80.599 7.29167Z" fill="#0038FF"/>
<path fill-rule="evenodd" clip-rule="evenodd" d="M80.599 3.20833C80.599 2.96671 80.8152 2.77083 81.0819 2.77083H87.52C87.7867 2.77083 88.0029 2.96671 88.0029 3.20833C88.0029 3.44996 87.7867 3.64583 87.52 3.64583H81.0819C80.8152 3.64583 80.599 3.44996 80.599 3.20833Z" fill="#0038FF"/>
<path fill-rule="evenodd" clip-rule="evenodd" d="M78.8481 1.73231C79.0367 1.90316 79.0367 2.18017 78.8481 2.35103L76.9167 4.10103C76.7281 4.27188 76.4224 4.27188 76.2338 4.10103L75.59 3.51769C75.4014 3.34684 75.4014 3.06983 75.59 2.89897C75.7786 2.72812 76.0843 2.72812 76.2729 2.89897L76.5752 3.17295L78.1652 1.73231C78.3538 1.56145 78.6595 1.56145 78.8481 1.73231Z" fill="#0038FF"/>
<path fill-rule="evenodd" clip-rule="evenodd" d="M78.8481 5.81564C79.0367 5.9865 79.0367 6.2635 78.8481 6.43436L76.9167 8.18436C76.7281 8.35521 76.4224 8.35521 76.2338 8.18436L75.59 7.60103C75.4014 7.43017 75.4014 7.15316 75.59 6.98231C75.7786 6.81145 76.0843 6.81145 76.2729 6.98231L76.5752 7.25628L78.1652 5.81564C78.3538 5.64479 78.6595 5.64479 78.8481 5.81564Z" fill="#0038FF"/>
<path fill-rule="evenodd" clip-rule="evenodd" d="M78.8481 9.89897C79.0367 10.0698 79.0367 10.3468 78.8481 10.5177L76.9167 12.2677C76.7281 12.4385 76.4224 12.4385 76.2338 12.2677L75.59 11.6844C75.4014 11.5135 75.4014 11.2365 75.59 11.0656C75.7786 10.8948 76.0843 10.8948 76.2729 11.0656L76.5752 11.3396L78.1652 9.89897C78.3538 9.72812 78.6595 9.72812 78.8481 9.89897Z" fill="#0038FF"/>
<path d="M20.8213 3.26367V4.71973H23.2139V6.06641H20.8213V12H19.4746V6.06641H17.6973V4.71973H19.4746V3.26367C19.4746 3.07682 19.5088 2.90365 19.5771 2.74414C19.6501 2.58008 19.748 2.43652 19.8711 2.31348C19.9941 2.19043 20.1377 2.09473 20.3018 2.02637C20.4658 1.95345 20.639 1.91699 20.8213 1.91699H23.2139V3.26367H20.8213ZM26.4541 4.71973V12H25.1074V4.71973H26.4541ZM25.0391 1.91699H26.5225V3.31836H25.0391V1.91699ZM35.2109 12H33.8643V6.06641H30.1113V12H28.7715V4.71973H30.1113V6.00488C30.1204 5.82715 30.1615 5.66081 30.2344 5.50586C30.3073 5.34635 30.403 5.20964 30.5215 5.0957C30.6445 4.97721 30.7858 4.88607 30.9453 4.82227C31.1048 4.75391 31.2757 4.71973 31.458 4.71973H33.8643C34.0511 4.71973 34.2266 4.75618 34.3906 4.8291C34.5547 4.89746 34.696 4.99316 34.8145 5.11621C34.9375 5.2347 35.0332 5.37598 35.1016 5.54004C35.1745 5.7041 35.2109 5.87956 35.2109 6.06641V12Z" fill="#05FF00"/>
<path d="M37.417 2.19727H45.2578V3.59863H42.0381V12H40.6367V3.59863H37.417V2.19727ZM50.1592 2.19727L53.9395 12H52.5381L51.6699 9.74414H47.2471L46.3789 12H44.9775L48.7578 2.19727H50.1592ZM47.7803 8.34277H51.1299L49.4619 4.02246L47.7803 8.34277Z" fill="#0038FF"/>
<path d="M57.6592 7.80273C57.4678 7.80273 57.2855 7.76628 57.1123 7.69336C56.9437 7.61589 56.7956 7.51562 56.668 7.39258C56.5404 7.26497 56.4401 7.11686 56.3672 6.94824C56.2943 6.77507 56.2578 6.59277 56.2578 6.40137V3.59863C56.2578 3.40723 56.2943 3.22721 56.3672 3.05859C56.4401 2.88542 56.5404 2.7373 56.668 2.61426C56.7956 2.48665 56.9437 2.38639 57.1123 2.31348C57.2855 2.236 57.4678 2.19727 57.6592 2.19727H62.417C62.6084 2.19727 62.7884 2.236 62.957 2.31348C63.1302 2.38639 63.2806 2.48665 63.4082 2.61426C63.5358 2.7373 63.6361 2.88542 63.709 3.05859C63.7819 3.22721 63.8184 3.40723 63.8184 3.59863V4.86328H62.417V3.59863H57.6592V6.40137H62.417C62.6084 6.40137 62.7884 6.43783 62.957 6.51074C63.1302 6.58366 63.2806 6.68392 63.4082 6.81152C63.5358 6.93913 63.6361 7.08952 63.709 7.2627C63.7819 7.43132 63.8184 7.61133 63.8184 7.80273V10.5986C63.8184 10.79 63.7819 10.9723 63.709 11.1455C63.6361 11.3141 63.5358 11.4622 63.4082 11.5898C63.2806 11.7174 63.1302 11.8177 62.957 11.8906C62.7884 11.9635 62.6084 12 62.417 12H57.5225C57.3311 12 57.1488 11.9635 56.9756 11.8906C56.807 11.8177 56.6589 11.7174 56.5312 11.5898C56.4036 11.4622 56.3034 11.3141 56.2305 11.1455C56.1576 10.9723 56.1211 10.79 56.1211 10.5986V9.34082H57.5225V10.5986H62.417V7.80273H57.6592ZM67.749 2.19727V6.42871L72.4248 2.19727H74.4004L69.0957 7.00293L74.6123 12H72.6367L67.749 7.59082V12H66.3477V2.19727H67.749Z" fill="#0038FF"/>
<path fill-rule="evenodd" clip-rule="evenodd" d="M0 13.5116C0 13.2419 0.258297 13.0233 0.576923 13.0233H14.4231C14.7417 13.0233 15 13.2419 15 13.5116C15 13.7813 14.7417 14 14.4231 14H0.576923C0.258297 14 0 13.7813 0 13.5116Z" fill="#05FF00"/>
<path fill-rule="evenodd" clip-rule="evenodd" d="M0 5.29451C0 4.66665 0.604451 4.15498 1.34615 4.15498H2.5769C3.31861 4.15498 3.92306 4.66665 3.92306 5.29451V10.9075C3.92306 11.5354 3.31861 12.0471 2.5769 12.0471H1.34615C0.604451 12.0471 0 11.5354 0 10.9075V5.29451ZM1.34615 5.13172C1.2417 5.13172 1.15385 5.20609 1.15385 5.29451V10.9075C1.15385 10.996 1.2417 11.0703 1.34615 11.0703H2.5769C2.68136 11.0703 2.76921 10.996 2.76921 10.9075V5.29451C2.76921 5.20609 2.68136 5.13172 2.5769 5.13172H1.34615Z" fill="#05FF00"/>
<path fill-rule="evenodd" clip-rule="evenodd" d="M5.53786 3.21639C5.53786 2.58853 6.14231 2.07685 6.88401 2.07685H8.11477C8.85647 2.07685 9.46092 2.58853 9.46092 3.21639V10.9066C9.46092 11.5345 8.85647 12.0462 8.11477 12.0462H6.88401C6.14231 12.0462 5.53786 11.5345 5.53786 10.9066V3.21639ZM6.88401 3.0536C6.77956 3.0536 6.69171 3.12797 6.69171 3.21639V10.9066C6.69171 10.995 6.77956 11.0694 6.88401 11.0694H8.11477C8.21922 11.0694 8.30707 10.995 8.30707 10.9066V3.21639C8.30707 3.12797 8.21922 3.0536 8.11477 3.0536H6.88401Z" fill="#05FF00"/>
<path fill-rule="evenodd" clip-rule="evenodd" d="M11.0757 1.13953C11.0757 0.511675 11.6802 0 12.4219 0H13.6526C14.3943 0 14.9988 0.511675 14.9988 1.13953V10.907C14.9988 11.5348 14.3943 12.0465 13.6526 12.0465H12.4219C11.6802 12.0465 11.0757 11.5348 11.0757 10.907V1.13953ZM12.4219 0.976744C12.3174 0.976744 12.2296 1.05112 12.2296 1.13953V10.907C12.2296 10.9954 12.3174 11.0698 12.4219 11.0698H13.6526C13.7571 11.0698 13.8449 10.9954 13.8449 10.907V1.13953C13.8449 1.05112 13.7571 0.976744 13.6526 0.976744H12.4219Z" fill="#05FF00"/>
</svg>
