<?xml version="1.0" encoding="UTF-8"?>
<svg id="Camada_1" data-name="Camada 1" xmlns="http://www.w3.org/2000/svg" xmlns:xlink="http://www.w3.org/1999/xlink" viewBox="0 0 16 16">
  <defs>
    <style>
      .cls-1 {
        stroke: #fff;
        stroke-miterlimit: 10;
        stroke-width: .16px;
      }

      .cls-1, .cls-2 {
        fill: none;
      }

      .cls-3 {
        fill: #00d931;
      }

      .cls-4 {
        fill: #00abeb;
      }

      .cls-5 {
        fill: #fff;
      }

      .cls-6 {
        fill: #001d5b;
      }

      .cls-7 {
        clip-path: url(#clippath);
      }
    </style>
    <clipPath id="clippath">
      <path class="cls-2" d="M3.04,8.02c0,2.67,2.2,4.84,4.92,4.84s4.92-2.17,4.92-4.84-2.2-4.84-4.92-4.84-4.92,2.17-4.92,4.84"/>
    </clipPath>
  </defs>
  <path class="cls-6" d="M8,15.88C3.66,15.88.12,12.37.12,8.07S3.66.27,8,.27s7.87,3.5,7.87,7.8-3.53,7.8-7.87,7.8M8,3.2c-2.71,0-4.91,2.18-4.91,4.87s2.2,4.87,4.91,4.87,4.91-2.18,4.91-4.87-2.2-4.87-4.91-4.87"/>
  <g class="cls-7">
    <path class="cls-4" d="M3.02,8.58c.31-.12.61-.3.89-.47.54-.32,1.1-.65,1.8-.65s1.26.33,1.8.65c.54.32,1.09.65,1.79.65s1.25-.33,1.79-.65c.54-.32,1.1-.65,1.8-.65h-.01s.14.76,0,1.57c-.28,1.56-1.56,4.01-5,4.03-2.84.01-4.85-1.93-4.85-4.48"/>
    <path class="cls-1" d="M3.02,8.58c.31-.12.61-.3.89-.47.54-.32,1.1-.65,1.8-.65s1.26.33,1.8.65c.54.32,1.09.65,1.79.65s1.25-.33,1.79-.65c.54-.32,1.1-.65,1.8-.65h-.01s.14.76,0,1.57c-.28,1.56-1.56,4.01-5,4.03-2.84.01-4.85-1.93-4.85-4.48"/>
  </g>
  <path class="cls-1" d="M12.89,8.02c0,2.67-2.2,4.84-4.92,4.84s-4.92-2.17-4.92-4.84S5.24,3.18,7.96,3.18s4.92,2.17,4.92,4.84Z"/>
  <path class="cls-3" d="M11.33,3.2c.04-.09.06-.18.06-.28-.02-.34-.34-.61-.71-.6-.25.01-.47.15-.57.34h0s-1.77,3.45-1.77,3.45c0,0,.01-5.26.01-5.27-.02-.34-.33-.6-.71-.58-.36.01-.64.28-.64.6h0s-.05,7.54-.05,7.61c.02.4.39.71.83.7.37-.02.66-.26.74-.57l2.82-5.4h0Z"/>
  <path class="cls-5" d="M7.65,9.31c-.46,0-.9-.39-.84-1.04l.05-7.54c.07-.33.39-.58.77-.6.22,0,.43.06.59.19.13.11.22.25.26.41v4.76s1.57-3,1.57-3c.12-.21.38-.29.62-.3.46-.02.85.31.87.73,0,.07,0,.14-.02.21l-2.87,5.52c-.42.76-.98.66-1,.66M7.09,8.52c.02.33.31.51.56.51.29,0,.47-.09.73-.51l2.81-5.38c.03-.07.05-.14.05-.22,0-.13-.07-.25-.17-.34-.1-.09-.24-.13-.38-.13-.19,0-.36.11-.45.27l-2.06,4.01s.01-5.88.02-5.89c0-.12-.07-.24-.17-.32-.1-.08-.24-.13-.38-.12-.28.01-.49.22-.5.46,0,0-.06,7.61-.06,7.66"/>
</svg>