<svg width="50" height="12" viewBox="0 0 50 12" fill="none" xmlns="http://www.w3.org/2000/svg">
<path d="M6.45996 8.48438C6.45996 8.25195 6.4235 8.04688 6.35059 7.86914C6.28223 7.68685 6.15918 7.52279 5.98145 7.37695C5.80827 7.23112 5.56673 7.09212 5.25684 6.95996C4.9515 6.8278 4.56413 6.69336 4.09473 6.55664C3.60254 6.41081 3.1582 6.24902 2.76172 6.07129C2.36523 5.889 2.02572 5.68164 1.74316 5.44922C1.46061 5.2168 1.24414 4.9502 1.09375 4.64941C0.943359 4.34863 0.868164 4.00456 0.868164 3.61719C0.868164 3.22982 0.947917 2.87207 1.10742 2.54395C1.26693 2.21582 1.49479 1.93099 1.79102 1.68945C2.0918 1.44336 2.44954 1.25195 2.86426 1.11523C3.27897 0.978516 3.74154 0.910156 4.25195 0.910156C4.99935 0.910156 5.63281 1.05371 6.15234 1.34082C6.67643 1.62337 7.0752 1.99479 7.34863 2.45508C7.62207 2.91081 7.75879 3.39844 7.75879 3.91797H6.44629C6.44629 3.54427 6.36654 3.21387 6.20703 2.92676C6.04753 2.63509 5.80599 2.40723 5.48242 2.24316C5.15885 2.07454 4.7487 1.99023 4.25195 1.99023C3.78255 1.99023 3.39518 2.06087 3.08984 2.20215C2.78451 2.34342 2.55664 2.53483 2.40625 2.77637C2.26042 3.0179 2.1875 3.29362 2.1875 3.60352C2.1875 3.81315 2.23079 4.00456 2.31738 4.17773C2.40853 4.34635 2.54753 4.50358 2.73438 4.64941C2.92578 4.79525 3.16732 4.92969 3.45898 5.05273C3.75521 5.17578 4.1084 5.29427 4.51855 5.4082C5.08366 5.56771 5.57129 5.74544 5.98145 5.94141C6.3916 6.13737 6.72884 6.3584 6.99316 6.60449C7.26204 6.84603 7.46029 7.12174 7.58789 7.43164C7.72005 7.73698 7.78613 8.08333 7.78613 8.4707C7.78613 8.8763 7.7041 9.24316 7.54004 9.57129C7.37598 9.89941 7.14128 10.1797 6.83594 10.4121C6.5306 10.6445 6.16374 10.8245 5.73535 10.9521C5.31152 11.0752 4.83757 11.1367 4.31348 11.1367C3.85319 11.1367 3.39974 11.0729 2.95312 10.9453C2.51107 10.8177 2.10775 10.6263 1.74316 10.3711C1.38314 10.1159 1.09375 9.80143 0.875 9.42773C0.660807 9.04948 0.553711 8.61198 0.553711 8.11523H1.86621C1.86621 8.45703 1.93229 8.75098 2.06445 8.99707C2.19661 9.23861 2.37663 9.43913 2.60449 9.59863C2.83691 9.75814 3.09896 9.87663 3.39062 9.9541C3.68685 10.027 3.99447 10.0635 4.31348 10.0635C4.77376 10.0635 5.16341 9.99967 5.48242 9.87207C5.80143 9.74447 6.04297 9.56217 6.20703 9.3252C6.37565 9.08822 6.45996 8.80794 6.45996 8.48438ZM10.541 0.5V11H9.27637V0.5H10.541ZM10.2402 7.02148L9.71387 7.00098C9.71842 6.49512 9.79362 6.02799 9.93945 5.59961C10.0853 5.16667 10.2904 4.79069 10.5547 4.47168C10.819 4.15267 11.1335 3.90658 11.498 3.7334C11.8672 3.55566 12.2751 3.4668 12.7217 3.4668C13.0863 3.4668 13.4144 3.51693 13.7061 3.61719C13.9977 3.71289 14.2461 3.86784 14.4512 4.08203C14.6608 4.29622 14.8203 4.57422 14.9297 4.91602C15.0391 5.25326 15.0938 5.66569 15.0938 6.15332V11H13.8223V6.13965C13.8223 5.75228 13.7653 5.44238 13.6514 5.20996C13.5374 4.97298 13.3711 4.80208 13.1523 4.69727C12.9336 4.58789 12.6647 4.5332 12.3457 4.5332C12.0312 4.5332 11.7441 4.59928 11.4844 4.73145C11.2292 4.86361 11.0081 5.0459 10.8213 5.27832C10.639 5.51074 10.4954 5.77734 10.3906 6.07812C10.2904 6.37435 10.2402 6.6888 10.2402 7.02148ZM21.3486 9.73535V5.92773C21.3486 5.63607 21.2894 5.38314 21.1709 5.16895C21.057 4.9502 20.8838 4.78158 20.6514 4.66309C20.4189 4.5446 20.1318 4.48535 19.79 4.48535C19.471 4.48535 19.1908 4.54004 18.9492 4.64941C18.7122 4.75879 18.5254 4.90234 18.3887 5.08008C18.2565 5.25781 18.1904 5.44922 18.1904 5.6543H16.9258C16.9258 5.38997 16.9941 5.12793 17.1309 4.86816C17.2676 4.6084 17.4635 4.3737 17.7188 4.16406C17.9785 3.94987 18.2884 3.78125 18.6484 3.6582C19.013 3.5306 19.4186 3.4668 19.8652 3.4668C20.403 3.4668 20.877 3.55794 21.2871 3.74023C21.7018 3.92253 22.0254 4.19824 22.2578 4.56738C22.4948 4.93197 22.6133 5.38997 22.6133 5.94141V9.38672C22.6133 9.63281 22.6338 9.89486 22.6748 10.1729C22.7204 10.4508 22.7865 10.6901 22.873 10.8906V11H21.5537C21.4899 10.8542 21.4398 10.6605 21.4033 10.4189C21.3669 10.1729 21.3486 9.94499 21.3486 9.73535ZM21.5674 6.51562L21.5811 7.4043H20.3027C19.9427 7.4043 19.6214 7.43392 19.3389 7.49316C19.0563 7.54785 18.8193 7.63216 18.6279 7.74609C18.4365 7.86003 18.2907 8.00358 18.1904 8.17676C18.0902 8.34538 18.04 8.54362 18.04 8.77148C18.04 9.00391 18.0924 9.21582 18.1973 9.40723C18.3021 9.59863 18.4593 9.7513 18.6689 9.86523C18.8831 9.97461 19.1452 10.0293 19.4551 10.0293C19.8424 10.0293 20.1842 9.94727 20.4805 9.7832C20.7767 9.61914 21.0114 9.41862 21.1846 9.18164C21.3623 8.94466 21.458 8.71452 21.4717 8.49121L22.0117 9.09961C21.9798 9.29102 21.8932 9.50293 21.752 9.73535C21.6107 9.96777 21.4215 10.1911 21.1846 10.4053C20.9521 10.6149 20.6742 10.7904 20.3506 10.9316C20.0316 11.0684 19.6715 11.1367 19.2705 11.1367C18.7692 11.1367 18.3294 11.0387 17.9512 10.8428C17.5775 10.6468 17.2858 10.3848 17.0762 10.0566C16.8711 9.72396 16.7686 9.35254 16.7686 8.94238C16.7686 8.5459 16.846 8.19727 17.001 7.89648C17.1559 7.59115 17.3792 7.33822 17.6709 7.1377C17.9626 6.93262 18.3135 6.77767 18.7236 6.67285C19.1338 6.56803 19.5918 6.51562 20.0977 6.51562H21.5674ZM26.7422 9.8584L28.7656 3.60352H30.0576L27.3984 11H26.5508L26.7422 9.8584ZM25.0537 3.60352L27.1387 9.89258L27.2822 11H26.4346L23.7549 3.60352H25.0537ZM30.8301 7.38379V7.22656C30.8301 6.69336 30.9076 6.19889 31.0625 5.74316C31.2174 5.28288 31.4408 4.88411 31.7324 4.54688C32.0241 4.20508 32.3773 3.94076 32.792 3.75391C33.2067 3.5625 33.6715 3.4668 34.1865 3.4668C34.7061 3.4668 35.1732 3.5625 35.5879 3.75391C36.0072 3.94076 36.3626 4.20508 36.6543 4.54688C36.9505 4.88411 37.1761 5.28288 37.3311 5.74316C37.486 6.19889 37.5635 6.69336 37.5635 7.22656V7.38379C37.5635 7.91699 37.486 8.41146 37.3311 8.86719C37.1761 9.32292 36.9505 9.72168 36.6543 10.0635C36.3626 10.4007 36.0094 10.665 35.5947 10.8564C35.1846 11.0433 34.7197 11.1367 34.2002 11.1367C33.6807 11.1367 33.2135 11.0433 32.7988 10.8564C32.3841 10.665 32.0286 10.4007 31.7324 10.0635C31.4408 9.72168 31.2174 9.32292 31.0625 8.86719C30.9076 8.41146 30.8301 7.91699 30.8301 7.38379ZM32.0947 7.22656V7.38379C32.0947 7.75293 32.138 8.10156 32.2246 8.42969C32.3112 8.75326 32.4411 9.04036 32.6143 9.29102C32.792 9.54167 33.013 9.73991 33.2773 9.88574C33.5417 10.027 33.8493 10.0977 34.2002 10.0977C34.5465 10.0977 34.8496 10.027 35.1094 9.88574C35.3737 9.73991 35.5924 9.54167 35.7656 9.29102C35.9388 9.04036 36.0687 8.75326 36.1553 8.42969C36.2464 8.10156 36.292 7.75293 36.292 7.38379V7.22656C36.292 6.86198 36.2464 6.5179 36.1553 6.19434C36.0687 5.86621 35.9365 5.57682 35.7588 5.32617C35.5856 5.07096 35.3669 4.87044 35.1025 4.72461C34.8428 4.57878 34.5374 4.50586 34.1865 4.50586C33.8402 4.50586 33.5348 4.57878 33.2705 4.72461C33.0107 4.87044 32.792 5.07096 32.6143 5.32617C32.4411 5.57682 32.3112 5.86621 32.2246 6.19434C32.138 6.5179 32.0947 6.86198 32.0947 7.22656ZM40.4141 4.76562V11H39.1494V3.60352H40.3799L40.4141 4.76562ZM42.7246 3.5625L42.7178 4.73828C42.613 4.71549 42.5127 4.70182 42.417 4.69727C42.3258 4.68815 42.221 4.68359 42.1025 4.68359C41.8109 4.68359 41.5534 4.72917 41.3301 4.82031C41.1068 4.91146 40.9176 5.03906 40.7627 5.20312C40.6077 5.36719 40.4847 5.56315 40.3936 5.79102C40.307 6.01432 40.25 6.26042 40.2227 6.5293L39.8672 6.73438C39.8672 6.28776 39.9105 5.86849 39.9971 5.47656C40.0882 5.08464 40.2272 4.73828 40.4141 4.4375C40.6009 4.13216 40.8379 3.89518 41.125 3.72656C41.4167 3.55339 41.763 3.4668 42.1641 3.4668C42.2552 3.4668 42.36 3.47819 42.4785 3.50098C42.597 3.51921 42.679 3.53971 42.7246 3.5625ZM47.9814 9.73535V5.92773C47.9814 5.63607 47.9222 5.38314 47.8037 5.16895C47.6898 4.9502 47.5166 4.78158 47.2842 4.66309C47.0518 4.5446 46.7646 4.48535 46.4229 4.48535C46.1038 4.48535 45.8236 4.54004 45.582 4.64941C45.3451 4.75879 45.1582 4.90234 45.0215 5.08008C44.8893 5.25781 44.8232 5.44922 44.8232 5.6543H43.5586C43.5586 5.38997 43.627 5.12793 43.7637 4.86816C43.9004 4.6084 44.0964 4.3737 44.3516 4.16406C44.6113 3.94987 44.9212 3.78125 45.2812 3.6582C45.6458 3.5306 46.0514 3.4668 46.498 3.4668C47.0358 3.4668 47.5098 3.55794 47.9199 3.74023C48.3346 3.92253 48.6582 4.19824 48.8906 4.56738C49.1276 4.93197 49.2461 5.38997 49.2461 5.94141V9.38672C49.2461 9.63281 49.2666 9.89486 49.3076 10.1729C49.3532 10.4508 49.4193 10.6901 49.5059 10.8906V11H48.1865C48.1227 10.8542 48.0726 10.6605 48.0361 10.4189C47.9997 10.1729 47.9814 9.94499 47.9814 9.73535ZM48.2002 6.51562L48.2139 7.4043H46.9355C46.5755 7.4043 46.2542 7.43392 45.9717 7.49316C45.6891 7.54785 45.4521 7.63216 45.2607 7.74609C45.0693 7.86003 44.9235 8.00358 44.8232 8.17676C44.723 8.34538 44.6729 8.54362 44.6729 8.77148C44.6729 9.00391 44.7253 9.21582 44.8301 9.40723C44.9349 9.59863 45.0921 9.7513 45.3018 9.86523C45.516 9.97461 45.778 10.0293 46.0879 10.0293C46.4753 10.0293 46.8171 9.94727 47.1133 9.7832C47.4095 9.61914 47.6442 9.41862 47.8174 9.18164C47.9951 8.94466 48.0908 8.71452 48.1045 8.49121L48.6445 9.09961C48.6126 9.29102 48.526 9.50293 48.3848 9.73535C48.2435 9.96777 48.0544 10.1911 47.8174 10.4053C47.585 10.6149 47.307 10.7904 46.9834 10.9316C46.6644 11.0684 46.3044 11.1367 45.9033 11.1367C45.402 11.1367 44.9622 11.0387 44.584 10.8428C44.2103 10.6468 43.9186 10.3848 43.709 10.0566C43.5039 9.72396 43.4014 9.35254 43.4014 8.94238C43.4014 8.5459 43.4788 8.19727 43.6338 7.89648C43.7887 7.59115 44.012 7.33822 44.3037 7.1377C44.5954 6.93262 44.9463 6.77767 45.3564 6.67285C45.7666 6.56803 46.2246 6.51562 46.7305 6.51562H48.2002ZM48.207 0.636719L49.0615 0.711914C49.0615 1.0446 48.9954 1.33626 48.8633 1.58691C48.7311 1.83757 48.5534 2.03125 48.3301 2.16797C48.1113 2.30469 47.863 2.37305 47.585 2.37305C47.3525 2.37305 47.1611 2.34115 47.0107 2.27734C46.8604 2.20898 46.7259 2.13379 46.6074 2.05176C46.4889 1.96517 46.3636 1.88997 46.2314 1.82617C46.1038 1.75781 45.9443 1.72363 45.7529 1.72363C45.5615 1.72363 45.3997 1.79655 45.2676 1.94238C45.14 2.08822 45.0762 2.26823 45.0762 2.48242L44.2217 2.44141C44.2217 2.10872 44.2855 1.81706 44.4131 1.56641C44.5452 1.3112 44.723 1.11296 44.9463 0.97168C45.1696 0.825846 45.418 0.75293 45.6914 0.75293C45.8874 0.75293 46.0583 0.787109 46.2041 0.855469C46.3545 0.919271 46.4958 0.994466 46.6279 1.08105C46.7601 1.16309 46.8968 1.23828 47.0381 1.30664C47.1794 1.37044 47.3411 1.40234 47.5234 1.40234C47.7148 1.40234 47.8766 1.32943 48.0088 1.18359C48.141 1.0332 48.207 0.850911 48.207 0.636719Z" fill="#F44335"/>
</svg>
